<!DOCTYPE svg PUBLIC "-//W3C//DTD SVG 1.1//EN" "http://www.w3.org/Graphics/SVG/1.1/DTD/svg11.dtd">
<!-- Uploaded to: SVG Repo, www.svgrepo.com, Transformed by: SVG Repo Mixer Tools -->
<svg width="800px" height="800px" viewBox="0 0 16 16" xmlns="http://www.w3.org/2000/svg" fill="#000000">
<g id="SVGRepo_bgCarrier" stroke-width="0"/>
<g id="SVGRepo_tracerCarrier" stroke-linecap="round" stroke-linejoin="round"/>
<g id="SVGRepo_iconCarrier"> <g fill="#35a8ff"> <path d="m 12 1 c 0.265625 0 0.519531 0.105469 0.707031 0.292969 l 3 3 c 0.390625 0.390625 0.390625 1.023437 0 1.414062 l -3 3 c -0.390625 0.390625 -1.023437 0.390625 -1.414062 0 s -0.390625 -1.023437 0 -1.414062 l 1.292969 -1.292969 h -7.585938 c -0.550781 0 -1 -0.449219 -1 -1 s 0.449219 -1 1 -1 h 7.585938 l -1.292969 -1.292969 c -0.390625 -0.390625 -0.390625 -1.023437 0 -1.414062 c 0.1875 -0.1875 0.441406 -0.292969 0.707031 -0.292969 z m 0 0" fill-opacity="0.34902"/> <path d="m 4 15 c -0.265625 0 -0.519531 -0.105469 -0.707031 -0.292969 l -3 -3 c -0.3906252 -0.390625 -0.3906252 -1.023437 0 -1.414062 l 3 -3 c 0.390625 -0.390625 1.023437 -0.390625 1.414062 0 s 0.390625 1.023437 0 1.414062 l -1.292969 1.292969 h 7.585938 c 0.550781 0 1 0.449219 1 1 s -0.449219 1 -1 1 h -7.585938 l 1.292969 1.292969 c 0.390625 0.390625 0.390625 1.023437 0 1.414062 c -0.1875 0.1875 -0.441406 0.292969 -0.707031 0.292969 z m 0 0"/> </g> </g>
</svg>